<svg id="Layer_1" xmlns="http://www.w3.org/2000/svg" width="188.9" height="80" viewBox="0 0 188.9 80"><style>.st0{fill:#255AA8;}</style><path d="M47.9 24.5v3.8H54V31h-6.1v6.2h-3V21.8H55v2.7h-7.1zM63.3 37.1v-1c-.7.8-1.8 1.2-2.8 1.2-1.1 0-2-.4-2.7-1-.9-.9-1.1-2-1.1-3.2v-7.2h2.8v6.8c0 1.5 1 2 1.9 2 .9 0 1.9-.5 1.9-2v-6.8H66v11.2h-2.7zM72.9 37.3c-1.8 0-3.4-.2-4.8-1.6l1.8-1.8c.9.9 2.1 1.1 3 1.1 1 0 2-.3 2-1.2 0-.6-.3-.9-1.2-1l-1.7-.3c-2-.2-3.3-1.1-3.3-3.1 0-2.3 2-3.6 4.3-3.6 1.7 0 3.2.3 4.3 1.3l-1.7 1.7C75 28.2 74 28 73 28c-1.1 0-1.6.5-1.6 1.1 0 .4.2.9 1.2 1l1.8.2c2.2.2 3.3 1.4 3.3 3.3 0 2.5-2.2 3.7-4.8 3.7zM80 24v-2.3h2.9V24H80zm.1 13.1V25.9h2.8v11.2h-2.8zM93.8 35.9c-.7.7-1.8 1.4-3.5 1.4s-2.8-.6-3.5-1.4c-1-1.1-1.3-2.3-1.3-4.4 0-2 .3-3.3 1.3-4.3.7-.7 1.8-1.4 3.5-1.4s2.8.6 3.5 1.4c1 1.1 1.3 2.3 1.3 4.3 0 2.1-.3 3.3-1.3 4.4zm-2.2-7.1c-.3-.3-.8-.5-1.3-.5s-1 .2-1.3.5c-.6.6-.6 1.5-.6 2.7 0 1.2.1 2.2.6 2.7.3.3.7.5 1.3.5s1-.2 1.3-.5c.6-.6.6-1.6.6-2.7.1-1.1 0-2.1-.6-2.7zM104.3 37.1v-6.8c0-1.5-1-2-1.9-2-.9 0-1.9.5-1.9 2v6.8h-2.8V25.9h2.7v1c.7-.8 1.8-1.2 2.8-1.2 1.1 0 2 .4 2.6 1 .9.9 1.1 2 1.1 3.2v7.2h-2.6z"/><g><path d="M126.9 37.1l-1.2-3.5H119l-1.2 3.5H116l5.6-15.3h1.4l5.6 15.3h-1.7zm-4.6-13l-2.9 8.1h5.7l-2.8-8.1zM133.1 37.1c-1.9 0-2.7-1.2-2.7-2.8V21.8h1.6v12.5c0 1 .3 1.6 1.4 1.6h.8v1.3h-1.1zM139.2 37.1c-1.9 0-2.7-1.2-2.7-2.8V21.8h1.6v12.5c0 1 .3 1.6 1.4 1.6h.8v1.3h-1.1zM142.5 23.5v-1.7h1.7v1.7h-1.7zm0 13.6V26.5h1.6v10.6h-1.6zM153.6 37.1v-1c-.9.9-1.6 1.1-3.1 1.1s-2.3-.3-3-1c-.5-.5-.8-1.3-.8-2.2 0-1.9 1.3-3.1 3.7-3.1h3.2v-1c0-1.6-.8-2.3-2.7-2.3-1.4 0-2 .3-2.7 1.2l-1.1-1c.9-1.2 2-1.6 3.7-1.6 2.8 0 4.2 1.2 4.2 3.5v7.2h-1.4zm0-4.9h-3c-1.6 0-2.4.6-2.4 1.9 0 1.2.8 1.8 2.4 1.8.9 0 1.7-.1 2.4-.7.4-.3.5-1 .5-1.8v-1.2zM165.4 37.1v-6.5c0-1.9-1-2.8-2.6-2.8s-2.6 1-2.6 2.8v6.5h-1.6V26.5h1.6v1.2c.8-.9 1.8-1.3 3-1.3 1.1 0 2.1.3 2.7 1 .8.7 1.1 1.7 1.1 3v6.8h-1.6zM174.5 37.3c-2.7 0-4.7-1.8-4.7-5.4 0-3.6 2-5.4 4.7-5.4 1.5 0 2.4.4 3.5 1.6l-1.1 1c-.8-.9-1.4-1.2-2.4-1.2s-1.9.4-2.5 1.2c-.5.7-.7 1.5-.7 2.8 0 1.3.2 2.2.7 2.8.6.8 1.4 1.2 2.5 1.2 1 0 1.6-.3 2.4-1.2l1.1 1c-1.2 1.2-2.1 1.6-3.5 1.6zM181.2 32.2c0 2.3 1.1 3.7 3.1 3.7 1.2 0 1.9-.4 2.8-1.2l1.1.9c-1.1 1.1-2.1 1.6-3.9 1.6-2.8 0-4.6-1.7-4.6-5.4 0-3.4 1.7-5.4 4.4-5.4s4.4 2 4.4 5.1v.7h-7.3zm5.3-2.9c-.4-1-1.4-1.6-2.5-1.6s-2.1.6-2.5 1.6c-.2.6-.3.9-.3 1.8h5.6c-.1-.9-.1-1.2-.3-1.8z"/></g><g><ellipse transform="matrix(.9976 -.06973 .06973 .9976 -3.695 2.194)" cx="29.6" cy="54" rx="5.3" ry="5.3"/><ellipse transform="matrix(.9976 -.06974 .06974 .9976 -4.496 1.8)" class="st0" cx="23.5" cy="65.3" rx="5.3" ry="5.3"/><ellipse transform="rotate(-34.014 10.827 43.066)" class="st0" cx="10.8" cy="43.1" rx="5.3" ry="5.3"/><ellipse transform="rotate(-34.014 23.462 43.066)" cx="23.5" cy="43.1" rx="5.3" ry="5.3"/><ellipse transform="rotate(-34.006 17.29 53.934)" class="st0" cx="17.3" cy="53.9" rx="5.3" ry="5.3"/><path d="M6 63.7c-.9 2.8.5 5.7 3.3 6.7 2.8.9 5.7-.5 6.7-3.3.9-2.7-.5-5.7-3.3-6.7-2.7-.9-3.3-2-2.4-4.8.9-2.8-.5-5.7-3.3-6.7-2.8-.9-5.7.5-6.7 3.3s.5 5.8 3.3 6.7c2.7 1 3.3 2 2.4 4.8z"/></g></svg>